<?xml version="1.0" encoding="UTF-8"?>
<!DOCTYPE svg PUBLIC "-//W3C//DTD SVG 1.1//EN" "http://www.w3.org/Graphics/SVG/1.1/DTD/svg11.dtd">
<!-- Creator: CorelDRAW 2019 (64 Bit) -->
<svg xmlns="http://www.w3.org/2000/svg" xml:space="preserve" width="81.0335mm" height="86.1108mm" version="1.1" style="shape-rendering:geometricPrecision; text-rendering:geometricPrecision; image-rendering:optimizeQuality; fill-rule:evenodd; clip-rule:evenodd"
viewBox="0 0 7191.04 7641.61"
 xmlns:xlink="http://www.w3.org/1999/xlink">
 <defs>
  <style type="text/css">
   <![CDATA[
    .str0 {stroke:#00352E;stroke-width:93.92;stroke-miterlimit:22.9256}
    .str1 {stroke:#00352E;stroke-width:17.75;stroke-miterlimit:22.9256}
    .fil0 {fill:none}
    .fil1 {fill:#00352E}
   ]]>
  </style>
 </defs>
 <g id="Camada_x0020_1">
  <metadata id="CorelCorpID_0Corel-Layer"/>
  <g id="_1690004514784">
   <path class="fil0 str0" d="M7144.09 7619.14l-18.79 -1117.99 -66.71 -238.34m-6969.96 136.67l-41.67 134.54 0 1085.12"/>
   <line class="fil0 str1" x1="7144.09" y1="7619.14" x2="46.96" y2= "7619.14" />
   <polyline class="fil0 str0" points="7058.6,6262.8 6949.44,6078.93 6771,5891.09 6592.56,5815.96 6076,5656.3 5550.06,5496.64 5700.33,5318.2 5813.04,5144.45 5871.73,5010.61 5953.91,4818.07 5991.48,4691.29 6045.49,4458.84 6076,4231.08 6101.84,3965.76 6108.87,3651.14 6092.44,3418.69 6073.66,3200.33 6047.83,2930.32 6029.05,2756.57 5998.52,2542.91 5944.52,2296.37 5899.91,2082.7 5831.81,1850.25 5787.2,1695.29 5716.77,1493.37 5653.37,1345.45 5552.41,1148.22 5436.19,968.59 5308.22,798.36 5202.56,679.79 5045.24,530.69 4891.45,415.64 4724.74,311.15 4540.43,220.76 4324.41,150.32 4151.84,99.83 3945.22,66.96 3833.69,57.58 3706.9,47.01 3473.28,52.88 3381.7,56.4 3109.34,106.88 2947.33,160.89 2822.89,214.89 2723.1,278.28 2670.26,314.68 2545.82,403.9 2475.38,475.51 2384.98,567.09 "/>
   <polyline class="fil0 str0" points="2388.2,563.84 2344.19,614.93 2301.34,667.17 2263.77,718.82 2219.75,782.81 2196.27,817.73 2148.14,895.21 2120.55,948.04 2079.46,1026.7 2049.52,1084.23 2019,1151.15 1982.02,1235.09 1956.78,1302.01 1940.34,1350.73 1916.28,1419.4 1888.69,1507.45 1865.79,1577.31 1847.01,1640.12 1828.23,1706.45 1807.39,1788.08 1789.79,1861.46 1771.01,1944.81 1744.62,2055.76 1725.83,2152.03 1710.57,2247.12 1701.76,2325.78 1687.68,2419.1 1675.35,2500.12 1662.43,2611.06 1650.69,2690.89 1646,2736.68 1638.37,2827.08 1632.5,2906.91 1619.59,3025.48 1599.63,3193.37 1582.03,3270.86 1567.95,3335.43 1547.99,3391.78 1527.45,3439.33 1489.88,3498.03 1452.31,3545.57 1400.07,3604.28 1370.72,3633.62 1334.91,3662.39 1292.06,3696.43 1238.05,3731.07 1184.05,3761.6 1103.63,3800.33 1026.73,3827.92 969.21,3846.12 889.96,3866.08 825.39,3880.16 765.52,3893.08 708.58,3904.83 624.05,3912.45 574.84,3913.67 574.84,4065.12 638.24,4089.77 719.24,4120.29 779.12,4139.08 903.56,4171.95 970.48,4178.99 1057.35,4178.99 1192.36,4168.42 1256.93,4150.82 1327.37,4124.99 1380.2,4093.29 1441.24,4054.55 1514.03,4005.25 1548.08,3973.55 1613.82,3919.54 1657.26,3871.41 1578.6,3985.29 1533.99,4026.37 1500.26,4051.91 1459.45,4081.55 1432.16,4097.7 1371.7,4137.61 1288.34,4177.53 1195.6,4212.16 1104.03,4232.71 1014.21,4245.62 937.32,4248.56 858.07,4247.39 727.75,4243.86 677.86,4234.46 652.61,4228.6 673.75,4300.8 691.36,4355.39 714.25,4415.85 745.95,4491.58 790.56,4574.93 859.24,4668.26 920.29,4722.27 1003.65,4775.1 1100.5,4814.43 1227.3,4835.56 1349.98,4839.67 1466.21,4839.08 1453.31,4916 1435.71,4970 1413.4,5002.88 1384.05,5039.27 1337.09,5058.05 1291.31,5067.45 1245.51,5072.14 1191.52,5072.14 1067.07,5072.14 1024.81,5068.62 1142.2,5202.45 1196.21,5261.15 1243.17,5304.59 1274.86,5328.07 1354.69,5383.24 1473.27,5450.16 1564.84,5499.47 1655.23,5544.09 1723.33,5578.13 1585.97,5621.57 1425.14,5672.05 1196.21,5735.44 1008.37,5794.14 892.15,5828.18 734.84,5885.72 537.61,5974.94 373.26,6073.55 213.59,6200.35 143.15,6294.26 88.64,6399.48 56.43,6503.45 "/>
   <polyline class="fil0 str0" points="3188.49,7632.61 3150.91,7440.08 3122.74,7271.02 3101.61,7123.1 3040.56,6810.82 3000.65,6573.68 2960.73,6381.14 2932.55,6205.04 2848.03,5780.06 2812.81,5559.34 2784.63,5390.29 2831.59,5301.07 2862.11,5186.01 2887.94,5070.97 2911.42,4916 2911.42,4805.64 2909.07,4723.47 2986.55,4793.9 3064.04,4859.65 3202.57,4948.87 3376.32,5038.09 3489.03,5073.31 3585.29,5096.79 3705.04,5092.1 3782.52,5080.36 3918.7,5038.09 4012.62,4998.18 4155.85,4918.35 4240.38,4869.04 4357.77,4784.51 4378.91,4761.03 4496.31,4789.21 4578.48,4800.95 4695.89,4817.38 4733.45,4819.73 4761.63,4822.09 4766.32,4941.82 4780.41,5073.31 4792.15,5207.15 4794.5,5237.67 4747.56,5387.94 4693.55,5538.21 4665.38,5643.87 4620.77,5768.31 4538.59,6061.81 4495.15,6201.51 4461.11,6330.66 4409.45,6490.32 4387.14,6559.58 4328.44,6762.69 4313.19,6813.17 4287.35,6892.42 4260.94,6988.1 4225.13,7113.14 4191.09,7212.34 4159.41,7318.29 4105.4,7522.56 4083.1,7619.14 "/>
   <polyline class="fil0 str0" points="4378.91,4761.03 4316.73,4728.45 4232.2,4690.88 4159.42,4643.93 4074.89,4592.27 4034.97,4564.1 4300.29,4587.58 4422.39,4585.22 4535.09,4582.87 4722.93,4561.74 4754.63,4550 4745.24,4476.05 4681.85,4531.23 4629.02,4572.3 "/>
   <polyline class="fil0 str0" points="4745.24,4476.05 4854.45,4385.65 4941.32,4322.25 5000.02,4237.72 5025.84,4082.75 5056.37,3920.75 5117.42,3641.33 5136.21,3526.28 5152.65,3405.36 5171.43,3290.32 5176.13,3160 5180.82,3049.65 5181.99,2929.9 5181.99,2786.67 5172.61,2655.18 5151.47,2523.7 5119.78,2359.34 5081.03,2230.2 5036.42,2109.28 4974.2,1982.49 4911.98,1860.4 4852.11,1778.21 4788.71,1692.52 4699.49,1598.6 4634.92,1526.99 4537.47,1442.46 4441.21,1366.15 4355.51,1307.45 4231.07,1232.31 4150.06,1187.7 4090.19,1158.35 4038.53,1231.14 3997.45,1288.66 3950.48,1353.23 3898.83,1429.54 3854.22,1496.46 3796.68,1583.34 3755.6,1651.43 3702.77,1726.56 3655.81,1800.52 3626.46,1849.83 3546.63,1964.88 3502.02,2031.8 3421.02,2148.03 3370.53,2223.15 3323.57,2294.77 3271.92,2369.91 3220.26,2448.57 3165.08,2528.4 3112.26,2602.36 3077.03,2658.71 3062.94,2432.12 3055.91,2334.68 3047.69,2169.16 3046.51,2110.45 2826.97,2497.87 2801.15,2460.31 2756.54,2413.35 2686.09,2376.95 2608.61,2355.81 2501.78,2354.64 2406.69,2368.74 2309.24,2405.13 2258.77,2447.39 2225.9,2477.91 2215.33,2489.65 2230.57,2657.55 2251.7,2880.61 2291.62,3298.55 2322.15,3631.96 2343.28,3833.89 2373.8,3993.55 2411.37,4155.56 2470.07,4235.39 2542.85,4319.92 2610.95,4390.36 2702.52,4491.32 2831.66,4632.2 2909.07,4723.47 "/>
   <polygon class="fil1 str1" points="2932.55,6205.04 2848.03,5780.06 2812.81,5559.34 2784.63,5390.29 2831.59,5301.07 2862.11,5186.01 2887.94,5070.97 2911.42,4916 2911.42,4805.64 2909.07,4723.47 2831.66,4632.2 2702.52,4491.32 2610.95,4390.36 2542.85,4319.92 2470.07,4235.39 2411.37,4155.56 2373.8,3993.55 2343.28,3833.89 2322.15,3631.96 2291.62,3298.55 2251.7,2880.61 2230.57,2657.55 2215.33,2489.65 2225.9,2477.91 2258.77,2447.39 2309.24,2405.13 2406.69,2368.74 2501.78,2354.64 2608.61,2355.81 2686.09,2376.95 2756.54,2413.35 2801.15,2460.31 2826.97,2497.87 3046.51,2110.45 3047.69,2169.16 3055.91,2334.68 3062.94,2432.12 3077.03,2658.71 3112.26,2602.36 3165.08,2528.4 3220.26,2448.57 3271.92,2369.91 3323.57,2294.77 3370.53,2223.15 3421.02,2148.03 3502.02,2031.8 3546.63,1964.88 3626.46,1849.83 3655.81,1800.52 3702.77,1726.56 3755.6,1651.43 3796.68,1583.34 3854.22,1496.46 3898.83,1429.54 3950.48,1353.23 3997.45,1288.66 4038.53,1231.14 4090.19,1158.35 4150.06,1187.7 4231.07,1232.31 4355.51,1307.45 4441.21,1366.15 4537.47,1442.46 4634.92,1526.99 4699.49,1598.6 4788.71,1692.52 4852.11,1778.21 4911.98,1860.4 4974.2,1982.49 5036.42,2109.28 5081.03,2230.2 5119.78,2359.34 5151.47,2523.7 5172.61,2655.18 5181.99,2786.67 5181.99,2929.9 5180.82,3049.65 5176.13,3160 5171.43,3290.32 5152.65,3405.36 5136.21,3526.28 5117.42,3641.33 5056.37,3920.75 5025.84,4082.75 5000.02,4237.72 4941.32,4322.25 4854.45,4385.65 4745.24,4476.05 4754.63,4550 4722.93,4561.74 4629.02,4572.3 4535.09,4582.87 4422.39,4585.22 4300.29,4587.58 4034.97,4564.1 4074.89,4592.27 4159.42,4643.93 4232.2,4690.88 4316.73,4728.45 4378.91,4761.03 4496.31,4789.21 4578.48,4800.95 4695.89,4817.38 4733.45,4819.73 4761.63,4822.09 4766.32,4941.82 4780.41,5073.31 4792.15,5207.15 4794.5,5237.67 4747.56,5387.94 4693.55,5538.21 4665.38,5643.87 4620.77,5768.31 4538.59,6061.81 4495.15,6201.51 4461.11,6330.66 4409.45,6490.32 4387.14,6559.58 4328.44,6762.69 4313.19,6813.17 4287.35,6892.42 4260.94,6988.1 4225.13,7113.14 4191.09,7212.34 4159.41,7318.29 4105.4,7522.56 4083.1,7619.14 7144.09,7619.14 7125.3,6501.15 7058.6,6262.8 6949.44,6078.93 6771,5891.09 6592.56,5815.96 6076,5656.3 5550.06,5496.64 5700.33,5318.2 5813.04,5144.45 5871.73,5010.61 5953.91,4818.07 5991.48,4691.29 6045.49,4458.84 6076,4231.08 6101.84,3965.76 6108.87,3651.14 6092.44,3418.69 6073.66,3200.33 6047.83,2930.32 6029.05,2756.57 5998.52,2542.91 5944.52,2296.37 5899.91,2082.7 5831.81,1850.25 5787.2,1695.29 5716.77,1493.37 5653.37,1345.45 5552.41,1148.22 5436.19,968.59 5308.22,798.36 5202.56,679.79 5045.24,530.69 4891.45,415.64 4724.74,311.15 4540.43,220.76 4324.41,150.32 4151.84,99.83 3945.22,66.96 3833.69,57.58 3706.9,47.01 3473.28,52.88 3381.7,56.4 3109.34,106.88 2947.33,160.89 2822.89,214.89 2723.1,278.28 2670.26,314.68 2545.82,403.9 2475.38,475.51 2388.2,563.84 2344.19,614.93 2301.34,667.17 2263.77,718.82 2219.75,782.81 2196.27,817.73 2148.14,895.21 2120.55,948.04 2079.46,1026.7 2049.52,1084.23 2019,1151.15 1982.02,1235.09 1956.78,1302.01 1940.34,1350.73 1916.28,1419.4 1888.69,1507.45 1865.79,1577.31 1847.01,1640.12 1828.23,1706.45 1807.39,1788.08 1789.79,1861.46 1771.01,1944.81 1744.62,2055.76 1725.83,2152.03 1710.57,2247.12 1701.76,2325.78 1687.68,2419.1 1675.35,2500.12 1662.43,2611.06 1650.69,2690.89 1646,2736.68 1638.37,2827.08 1632.5,2906.91 1619.59,3025.48 1599.63,3193.37 1582.03,3270.86 1567.95,3335.43 1547.99,3391.78 1527.45,3439.33 1489.88,3498.03 1452.31,3545.57 1400.07,3604.28 1370.72,3633.62 1334.91,3662.39 1292.06,3696.43 1238.05,3731.07 1184.05,3761.6 1103.63,3800.33 1026.73,3827.92 969.21,3846.12 889.96,3866.08 825.39,3880.16 765.52,3893.08 708.58,3904.83 624.05,3912.45 574.84,3913.67 574.84,4065.12 638.24,4089.77 719.24,4120.29 779.12,4139.08 903.56,4171.95 970.48,4178.99 1057.35,4178.99 1192.36,4168.42 1256.93,4150.82 1327.37,4124.99 1380.2,4093.29 1441.24,4054.55 1514.03,4005.25 1548.08,3973.55 1613.82,3919.54 1657.26,3871.41 1578.6,3985.29 1533.99,4026.37 1500.26,4051.91 1459.45,4081.55 1432.16,4097.7 1371.7,4137.61 1288.34,4177.53 1195.6,4212.16 1104.03,4232.71 1014.21,4245.62 937.32,4248.56 858.07,4247.39 727.75,4243.86 677.86,4234.46 652.61,4228.6 673.75,4300.8 691.36,4355.39 714.25,4415.85 745.95,4491.58 790.56,4574.93 859.24,4668.26 920.29,4722.27 1003.65,4775.1 1100.5,4814.43 1227.3,4835.56 1349.98,4839.67 1466.21,4839.08 1453.31,4916 1435.71,4970 1413.4,5002.88 1384.05,5039.27 1337.09,5058.05 1291.31,5067.45 1245.51,5072.14 1191.52,5072.14 1067.07,5072.14 1024.81,5068.62 1142.2,5202.45 1196.21,5261.15 1243.17,5304.59 1274.86,5328.07 1354.69,5383.24 1473.27,5450.16 1564.84,5499.47 1655.23,5544.09 1723.33,5578.13 1585.97,5621.57 1425.14,5672.05 1196.21,5735.44 1008.37,5794.14 892.15,5828.18 734.84,5885.72 537.61,5974.94 373.26,6073.55 213.59,6200.35 143.15,6294.26 88.64,6399.48 46.96,6534.02 46.96,7619.14 3185.86,7619.14 3150.91,7440.08 3122.74,7271.02 3101.61,7123.1 3040.56,6810.82 3000.65,6573.68 2960.73,6381.14 "/>
  </g>
 </g>
</svg>
