<?xml version="1.0" encoding="UTF-8"?>
<!DOCTYPE svg PUBLIC "-//W3C//DTD SVG 1.1//EN" "http://www.w3.org/Graphics/SVG/1.1/DTD/svg11.dtd">
<!-- Creator: CorelDRAW 2019 (64 Bit) -->
<svg xmlns="http://www.w3.org/2000/svg" xml:space="preserve" width="93.2299mm" height="62.3088mm" version="1.1" style="shape-rendering:geometricPrecision; text-rendering:geometricPrecision; image-rendering:optimizeQuality; fill-rule:evenodd; clip-rule:evenodd"
viewBox="0 0 7661.73 5120.6"
 xmlns:xlink="http://www.w3.org/1999/xlink">
 <defs>
  <style type="text/css">
   <![CDATA[
    .str0 {stroke:#00352E;stroke-width:86.97;stroke-miterlimit:22.9256}
    .str1 {stroke:#00352E;stroke-width:16.44;stroke-miterlimit:22.9256}
    .str2 {stroke:#2E9587;stroke-width:16.44;stroke-miterlimit:22.9256}
    .fil0 {fill:none}
    .fil1 {fill:#00352E}
    .fil2 {fill:#2E9587}
   ]]>
  </style>
 </defs>
 <g id="Camada_x0020_1">
  <metadata id="CorelCorpID_0Corel-Layer"/>
  <g id="_1690006022880">
   <g>
   </g>
   <path class="fil0 str0" d="M7618.24 3631.46l-7.54 -448.86 -26.78 -95.68m-2798.29 54.86l-16.72 54.02 0 435.66"/>
   <line class="fil0 str1" x1="7618.24" y1="3631.46" x2="4768.91" y2= "3631.46" />
   <polyline class="fil0 str0" points="7583.92,3086.92 7540.1,3013.1 7468.46,2937.68 7396.82,2907.52 7189.43,2843.42 6978.28,2779.32 7038.6,2707.68 7083.85,2637.93 7107.42,2584.19 7140.41,2506.89 7155.5,2455.99 7177.18,2362.67 7189.43,2271.23 7199.8,2164.7 7202.63,2038.39 7196.03,1945.07 7188.49,1857.41 7178.12,1749 7170.58,1679.25 7158.33,1593.46 7136.64,1494.49 7118.73,1408.7 7091.4,1315.38 7073.48,1253.16 7045.2,1172.1 7019.75,1112.71 6979.22,1033.52 6932.56,961.41 6881.18,893.07 6838.76,845.46 6775.6,785.6 6713.86,739.41 6646.93,697.46 6572.93,661.17 6486.21,632.89 6416.92,612.63 6333.97,599.43 6289.19,595.66 6238.29,591.42 6144.49,593.77 6107.72,595.19 5998.38,615.45 5933.34,637.13 5883.38,658.81 5843.32,684.26 5822.1,698.88 5772.14,734.7 5743.86,763.45 5707.57,800.21 "/>
   <polyline class="fil0 str0" points="5708.86,798.91 5691.19,819.42 5673.98,840.39 5658.9,861.13 5641.22,886.82 5631.81,900.84 5612.48,931.95 5601.41,953.16 5584.91,984.73 5572.89,1007.83 5560.64,1034.7 5545.79,1068.4 5535.65,1095.27 5529.06,1114.83 5519.39,1142.4 5508.31,1177.75 5499.12,1205.8 5491.58,1231.01 5484.04,1257.64 5475.68,1290.41 5468.61,1319.88 5461.07,1353.34 5450.47,1397.88 5442.93,1436.53 5436.8,1474.71 5433.26,1506.29 5427.61,1543.76 5422.66,1576.28 5417.48,1620.82 5412.76,1652.87 5410.88,1671.26 5407.81,1707.55 5405.46,1739.6 5400.28,1787.21 5392.26,1854.61 5385.2,1885.73 5379.54,1911.64 5371.53,1934.27 5363.29,1953.36 5348.2,1976.92 5333.12,1996.01 5312.15,2019.58 5300.36,2031.36 5285.99,2042.91 5268.78,2056.58 5247.1,2070.48 5225.42,2082.74 5193.13,2098.29 5162.26,2109.36 5139.16,2116.68 5107.35,2124.69 5081.42,2130.35 5057.39,2135.53 5034.52,2140.24 5000.59,2143.3 4980.83,2143.8 4980.83,2204.6 5006.29,2214.5 5038.8,2226.75 5062.84,2234.29 5112.81,2247.49 5139.67,2250.31 5174.55,2250.31 5228.76,2246.07 5254.68,2239 5282.96,2228.63 5304.17,2215.91 5328.67,2200.36 5357.9,2180.56 5371.57,2167.84 5397.96,2146.15 5415.4,2126.83 5383.82,2172.54 5365.91,2189.04 5352.37,2199.29 5335.99,2211.19 5325.02,2217.68 5300.76,2233.7 5267.29,2249.73 5230.06,2263.63 5193.29,2271.88 5157.23,2277.06 5126.36,2278.25 5094.55,2277.78 5042.22,2276.36 5022.2,2272.58 5012.05,2270.23 5020.54,2299.22 5027.61,2321.14 5036.81,2345.41 5049.53,2375.81 5067.44,2409.28 5095.02,2446.74 5119.52,2468.43 5152.99,2489.64 5191.87,2505.43 5242.78,2513.91 5292.04,2515.57 5338.7,2515.32 5333.52,2546.21 5326.45,2567.88 5317.5,2581.09 5305.71,2595.69 5286.86,2603.24 5268.48,2607.01 5250.09,2608.89 5228.41,2608.89 5178.45,2608.89 5161.48,2607.48 5208.61,2661.21 5230.3,2684.78 5249.15,2702.22 5261.88,2711.64 5293.93,2733.79 5341.53,2760.67 5378.3,2780.45 5414.59,2798.37 5441.93,2812.04 5386.78,2829.48 5322.21,2849.75 5230.3,2875.19 5154.89,2898.76 5108.22,2912.43 5045.07,2935.53 4965.89,2971.35 4899.9,3010.94 4835.8,3061.84 4807.52,3099.55 4785.63,3141.79 4772.7,3183.54 "/>
   <polyline class="fil0 str0" points="6030.15,3636.87 6015.07,3559.57 6003.76,3491.7 5995.28,3432.31 5970.77,3306.94 5954.74,3211.73 5938.72,3134.43 5927.4,3063.73 5893.47,2893.11 5879.33,2804.49 5868.02,2736.63 5886.87,2700.8 5899.12,2654.61 5909.5,2608.42 5918.92,2546.21 5918.92,2501.9 5917.98,2468.91 5949.08,2497.18 5980.2,2523.58 6035.81,2559.4 6105.56,2595.23 6150.82,2609.36 6189.46,2618.8 6237.54,2616.91 6268.65,2612.2 6323.33,2595.23 6361.03,2579.2 6418.53,2547.15 6452.47,2527.35 6499.6,2493.42 6508.09,2483.99 6555.22,2495.3 6588.21,2500.02 6635.34,2506.62 6650.42,2507.56 6661.74,2508.5 6663.62,2556.58 6669.28,2609.36 6673.99,2663.1 6674.93,2675.35 6656.09,2735.68 6634.41,2796.01 6623.1,2838.43 6605.18,2888.39 6572.19,3006.22 6554.76,3062.31 6541.09,3114.16 6520.35,3178.26 6511.39,3206.07 6487.82,3287.61 6481.7,3307.88 6471.33,3339.7 6460.72,3378.11 6446.34,3428.31 6432.68,3468.14 6419.96,3510.67 6398.28,3592.69 6389.33,3631.46 "/>
   <polyline class="fil0 str0" points="6508.09,2483.99 6483.12,2470.91 6449.19,2455.83 6419.96,2436.98 6386.03,2416.24 6370,2404.93 6476.52,2414.35 6525.54,2413.41 6570.79,2412.46 6646.21,2403.98 6658.93,2399.27 6655.16,2369.57 6629.71,2391.73 6608.49,2408.22 "/>
   <polyline class="fil0 str0" points="6655.16,2369.57 6699,2333.28 6733.88,2307.83 6757.45,2273.89 6767.82,2211.68 6780.07,2146.63 6804.58,2034.46 6812.12,1988.26 6818.72,1939.72 6826.27,1893.53 6828.15,1841.22 6830.04,1796.91 6830.51,1748.84 6830.51,1691.33 6826.73,1638.54 6818.25,1585.75 6805.52,1519.76 6789.97,1467.92 6772.06,1419.37 6747.08,1368.47 6722.1,1319.45 6698.06,1286.45 6672.61,1252.05 6636.79,1214.35 6610.87,1185.59 6571.74,1151.66 6533.09,1121.02 6498.69,1097.45 6448.73,1067.28 6416.21,1049.38 6392.17,1037.59 6371.43,1066.82 6354.93,1089.91 6336.08,1115.84 6315.34,1146.47 6297.43,1173.34 6274.34,1208.22 6257.84,1235.55 6236.63,1265.72 6217.77,1295.41 6206,1315.21 6173.95,1361.39 6156.03,1388.27 6123.51,1434.93 6103.25,1465.09 6084.38,1493.84 6063.65,1524.01 6042.92,1555.59 6020.76,1587.64 5999.55,1617.33 5985.41,1639.95 5979.75,1548.99 5976.93,1509.86 5973.63,1443.41 5973.15,1419.84 5885.01,1575.39 5874.65,1560.3 5856.74,1541.44 5828.46,1526.83 5797.35,1518.35 5754.45,1517.87 5716.28,1523.54 5677.16,1538.15 5656.9,1555.11 5643.7,1567.37 5639.46,1572.08 5645.57,1639.49 5654.06,1729.04 5670.09,1896.84 5682.34,2030.69 5690.82,2111.76 5703.08,2175.87 5718.16,2240.91 5741.72,2272.95 5770.95,2306.89 5798.29,2335.17 5835.05,2375.7 5886.9,2432.27 5917.98,2468.91 "/>
   <polygon class="fil1 str1" points="5927.4,3063.73 5893.47,2893.11 5879.33,2804.49 5868.02,2736.63 5886.87,2700.8 5899.12,2654.61 5909.5,2608.42 5918.92,2546.21 5918.92,2501.9 5917.98,2468.91 5886.9,2432.27 5835.05,2375.7 5798.29,2335.17 5770.95,2306.89 5741.72,2272.95 5718.16,2240.91 5703.08,2175.87 5690.82,2111.76 5682.34,2030.69 5670.09,1896.84 5654.06,1729.04 5645.57,1639.49 5639.46,1572.08 5643.7,1567.37 5656.9,1555.11 5677.16,1538.15 5716.28,1523.54 5754.45,1517.87 5797.35,1518.35 5828.46,1526.83 5856.74,1541.44 5874.65,1560.3 5885.01,1575.39 5973.15,1419.84 5973.63,1443.41 5976.93,1509.86 5979.75,1548.99 5985.41,1639.95 5999.55,1617.33 6020.76,1587.64 6042.92,1555.59 6063.65,1524.01 6084.38,1493.84 6103.25,1465.09 6123.51,1434.93 6156.03,1388.27 6173.95,1361.39 6206,1315.21 6217.77,1295.41 6236.63,1265.72 6257.84,1235.55 6274.34,1208.22 6297.43,1173.34 6315.34,1146.47 6336.08,1115.84 6354.93,1089.91 6371.43,1066.82 6392.17,1037.59 6416.21,1049.38 6448.73,1067.28 6498.69,1097.45 6533.09,1121.02 6571.74,1151.66 6610.87,1185.59 6636.79,1214.35 6672.61,1252.05 6698.06,1286.45 6722.1,1319.45 6747.08,1368.47 6772.06,1419.37 6789.97,1467.92 6805.52,1519.76 6818.25,1585.75 6826.73,1638.54 6830.51,1691.33 6830.51,1748.84 6830.04,1796.91 6828.15,1841.22 6826.27,1893.53 6818.72,1939.72 6812.12,1988.26 6804.58,2034.46 6780.07,2146.63 6767.82,2211.68 6757.45,2273.89 6733.88,2307.83 6699,2333.28 6655.16,2369.57 6658.93,2399.27 6646.21,2403.98 6608.49,2408.22 6570.79,2412.46 6525.54,2413.41 6476.52,2414.35 6370,2404.93 6386.03,2416.24 6419.96,2436.98 6449.19,2455.83 6483.12,2470.91 6508.09,2483.99 6555.22,2495.3 6588.21,2500.02 6635.34,2506.62 6650.42,2507.56 6661.74,2508.5 6663.62,2556.58 6669.28,2609.36 6673.99,2663.1 6674.93,2675.35 6656.09,2735.68 6634.41,2796.01 6623.1,2838.43 6605.18,2888.39 6572.19,3006.22 6554.76,3062.31 6541.09,3114.16 6520.35,3178.26 6511.39,3206.07 6487.82,3287.61 6481.7,3307.88 6471.33,3339.7 6460.72,3378.11 6446.34,3428.31 6432.68,3468.14 6419.96,3510.67 6398.28,3592.69 6389.33,3631.46 7618.24,3631.46 7610.7,3182.61 7583.92,3086.92 7540.1,3013.1 7468.46,2937.68 7396.82,2907.52 7189.43,2843.42 6978.28,2779.32 7038.6,2707.68 7083.85,2637.93 7107.42,2584.19 7140.41,2506.89 7155.5,2455.99 7177.18,2362.67 7189.43,2271.23 7199.8,2164.7 7202.63,2038.39 7196.03,1945.07 7188.49,1857.41 7178.12,1749 7170.58,1679.25 7158.33,1593.46 7136.64,1494.49 7118.73,1408.7 7091.4,1315.38 7073.48,1253.16 7045.2,1172.1 7019.75,1112.71 6979.22,1033.52 6932.56,961.41 6881.18,893.07 6838.76,845.46 6775.6,785.6 6713.86,739.41 6646.93,697.46 6572.93,661.17 6486.21,632.89 6416.92,612.63 6333.97,599.43 6289.19,595.66 6238.29,591.42 6144.49,593.77 6107.72,595.19 5998.38,615.45 5933.34,637.13 5883.38,658.81 5843.32,684.26 5822.1,698.88 5772.14,734.7 5743.86,763.45 5708.86,798.91 5691.19,819.42 5673.98,840.39 5658.9,861.13 5641.22,886.82 5631.81,900.84 5612.48,931.95 5601.41,953.16 5584.91,984.73 5572.89,1007.83 5560.64,1034.7 5545.79,1068.4 5535.65,1095.27 5529.06,1114.83 5519.39,1142.4 5508.31,1177.75 5499.12,1205.8 5491.58,1231.01 5484.04,1257.64 5475.68,1290.41 5468.61,1319.88 5461.07,1353.34 5450.47,1397.88 5442.93,1436.53 5436.8,1474.71 5433.26,1506.29 5427.61,1543.76 5422.66,1576.28 5417.48,1620.82 5412.76,1652.87 5410.88,1671.26 5407.81,1707.55 5405.46,1739.6 5400.28,1787.21 5392.26,1854.61 5385.2,1885.73 5379.54,1911.64 5371.53,1934.27 5363.29,1953.36 5348.2,1976.92 5333.12,1996.01 5312.15,2019.58 5300.36,2031.36 5285.99,2042.91 5268.78,2056.58 5247.1,2070.48 5225.42,2082.74 5193.13,2098.29 5162.26,2109.36 5139.16,2116.68 5107.35,2124.69 5081.42,2130.35 5057.39,2135.53 5034.52,2140.24 5000.59,2143.3 4980.83,2143.8 4980.83,2204.6 5006.29,2214.5 5038.8,2226.75 5062.84,2234.29 5112.81,2247.49 5139.67,2250.31 5174.55,2250.31 5228.76,2246.07 5254.68,2239 5282.96,2228.63 5304.17,2215.91 5328.67,2200.36 5357.9,2180.56 5371.57,2167.84 5397.96,2146.15 5415.4,2126.83 5383.82,2172.54 5365.91,2189.04 5352.37,2199.29 5335.99,2211.19 5325.02,2217.68 5300.76,2233.7 5267.29,2249.73 5230.06,2263.63 5193.29,2271.88 5157.23,2277.06 5126.36,2278.25 5094.55,2277.78 5042.22,2276.36 5022.2,2272.58 5012.05,2270.23 5020.54,2299.22 5027.61,2321.14 5036.81,2345.41 5049.53,2375.81 5067.44,2409.28 5095.02,2446.74 5119.52,2468.43 5152.99,2489.64 5191.87,2505.43 5242.78,2513.91 5292.04,2515.57 5338.7,2515.32 5333.52,2546.21 5326.45,2567.88 5317.5,2581.09 5305.71,2595.69 5286.86,2603.24 5268.48,2607.01 5250.09,2608.89 5228.41,2608.89 5178.45,2608.89 5161.48,2607.48 5208.61,2661.21 5230.3,2684.78 5249.15,2702.22 5261.88,2711.64 5293.93,2733.79 5341.53,2760.67 5378.3,2780.45 5414.59,2798.37 5441.93,2812.04 5386.78,2829.48 5322.21,2849.75 5230.3,2875.19 5154.89,2898.76 5108.22,2912.43 5045.07,2935.53 4965.89,2971.35 4899.9,3010.94 4835.8,3061.84 4807.52,3099.55 4785.63,3141.79 4768.91,3195.81 4768.91,3631.46 6029.1,3631.46 6015.07,3559.57 6003.76,3491.7 5995.28,3432.31 5970.77,3306.94 5954.74,3211.73 5938.72,3134.43 "/>
   <g>
    <polyline class="fil0 str0" points="4650.7,3614.88 4643.16,3166.03 4637.99,3134.93 4634.22,3121.73 4622.9,3079.31 4610.18,3048.2 4597.93,3021.8 4587.09,2997.3 4563.05,2952.52 4545.13,2927.07 4522.04,2898.32 4486.69,2868.15 4452.29,2844.11 4406.57,2813.95 4357.08,2788.97 4300.05,2762.1 4246.79,2740.42 4187.87,2718.74 4136.5,2702.71 4088.42,2686.69 4026.2,2666.9 3973.41,2650.87 3900.36,2630.13 3831.07,2609.86 3705.23,2571.68 3642.07,2559.9 3574.22,2339.31 3634.57,2276.14 3688.3,2215.81 3726.95,2163.97 3752.4,2124.85 3797.65,2048.02 3841.95,1958.46 3868.83,1895.3 3892.39,1875.98 3910.77,1856.18 3925.38,1834.97 3938.11,1814.7 3948.01,1793.97 3956.97,1772.28 3963.09,1756.26 3972.99,1727.98 3979.11,1704.41 3983.36,1667.64 3984.78,1597.42 3981.94,1571.49 3974.4,1548.87 3963.09,1525.3 3948.95,1512.57 3934.34,1502.2 3917.37,1496.08 3900.88,1496.08 3893.8,1499.38 3902.77,1418.78 3911.25,1345.25 3916.9,1259.47 3912.19,1144.47 3901.82,1077.54 3892.4,1021.92 3880.14,973.84 3867.89,942.74 3843.38,889.48 3826.41,864.03 3797.66,825.85 3769.86,795.21 3748.64,773.06 3722.72,748.55 3697.73,728.28 3656.73,699.53 3620.44,677.85 3590.27,662.77 3551.62,645.79 3514.86,630.25 3476.21,616.57 3443.22,605.73 3411.17,597.72 3375.35,591.12 3345.65,586.52 3250.94,582.79 3147.23,584.16 3126.02,586.52 3093.02,591.12 3056.26,597.25 3032.22,601.02 2992.63,611.86 2964.34,621.29 2941.72,628.83 2907.79,640.14 2873.38,655.22 2845.57,668.42 2812.57,685.86 2786.18,704.71 2762.14,722.63 2743.76,734.88 2727.26,748.08 2703.23,770.7 2682.02,790.73 2666.47,807.7 2648.55,829.38 2635.36,846.35 2622.63,865.21 2607.55,889.25 2583.79,940.39 2571.53,976.21 2559.28,1016.27 2550.79,1064.82 2544.19,1097.34 2538.54,1135.52 2536.66,1177.46 2535.95,1216.58 2535.47,1287.28 2537.36,1311.32 2540.19,1353.74 2544.43,1389.57 2550.08,1431.04 2559.99,1495.61 2561.4,1500.33 2551.03,1496.56 2536.89,1494.2 2521.81,1496.09 2510.5,1502.21 2502.01,1509.76 2490.23,1522.01 2483.16,1531.9 2475.62,1550.76 2470.43,1568.2 2467.61,1594.59 2464.3,1627.11 2466.19,1670.95 2469.96,1692.63 2477.5,1718.55 2487.87,1744.95 2499.66,1775.59 2506.73,1792.08 2517.57,1812.35 2530.3,1836.86 2545.84,1854.77 2557.16,1869.85 2570.36,1882.58 2580.25,1887.76 2584.97,1902.37 2601.93,1937.25 2621.73,1980.14 2644.82,2023.03 2660.85,2053.67 2675.46,2082.89 2694.31,2116.36 2714.11,2146.99 2733.91,2177.16 2753.7,2202.61 2778.68,2234.66 2805.55,2268.13 2837.13,2299.7 2872,2335.53 2904.54,2363.34 2935.18,2386.91 2974.29,2412.37 2964.18,2529.26 2859.09,2546.7 2792.17,2560.83 2750.69,2570.27 2694.12,2588.18 2642.75,2603.73 2579.59,2622.58 2522.55,2639.55 2449.97,2659.34 2401.43,2675.37 2343.92,2691.87 2291.13,2708.37 2248.24,2721.56 2197.81,2740.89 2153.97,2758.8 2116.27,2779.54 2062.06,2807.35 2015.4,2835.15 1984.29,2856.36 1959.78,2873.8 1931.03,2899.26 1908.41,2922.82 1884.84,2968.07 1863.63,3003.89 1841.95,3048.2 1820.27,3113.24 1806.12,3156.6 1801.36,3179.23 1801.36,3614.88 "/>
    <polyline class="fil0 str0" points="2561.4,1500.33 2612.1,1561.64 2638.49,1604.99 2659.24,1642.7 2686.57,1691.72 2694.11,1707.75 2684.69,1612.54 2679.03,1572 2673.37,1533.35 2666.77,1489.05 2660.17,1434.37 2652.65,1379.7 2650.76,1325.02 2652.65,1268.46 2677.15,1217.55 2695.06,1186.45 2717.68,1156.28 2745.96,1125.17 2774.24,1100.67 2802.53,1079.92 2829.86,1062.02 2860.02,1045.99 2890.19,1035.62 2929.79,1025.25 2941.09,1025.25 2956.17,1040.34 2974.09,1057.31 2986.34,1069.55 3000.49,1083.7 3015.57,1095.95 3032.53,1110.09 3061.75,1135.54 3095.93,1160.05 3129.63,1182.67 3158.15,1200.35 3193.73,1219.2 3229.32,1236.17 3265.85,1252.2 3317.46,1272.47 3378.5,1289.67 3436,1306.17 3465.34,1313.01 3503.52,1320.07 3541.47,1327.03 3611.45,1336.34 3670.38,1341.05 3747.67,1342.94 3792.92,1344.35 3798.11,1343.41 3795.28,1406.1 3790.1,1440.03 3783.5,1484.34 3778.31,1528.17 3768.89,1577.19 3760.87,1612.54 3743.43,1685.13 3741.08,1696.91 3742.02,1711.53 3783.02,1606.88 3794.34,1581.9 3812.24,1555.98 3825.44,1539.96 3837.7,1528.65 3859.85,1515.45 3882.48,1504.13 3897.34,1497.72 "/>
    <polyline class="fil0 str0" points="2750.69,2570.27 2747.06,2640.98 2744.24,2697.54 2745.18,2742.8 2749.89,2788.04 2760.26,2827.63 2778.17,2878.54 2792.31,2911.53 2806.45,2943.58 2820.59,2969.51 2838.5,3001.56 2853.11,3028.43 2883.07,3080.46 2920.52,3132.58 2950.68,3171.23 2985.56,3212.71 3007.24,3240.04 3049.89,3283.87 3090.43,3320.64 3129.08,3355.52 3177.16,3391.34 3206.38,3413.96 3224.29,3429.99 3258.23,3405.47 3281.79,3388.5 3322.33,3358.34 3344.95,3338.55 3372.29,3314.98 3390.2,3298.96 3411.88,3278.22 3431.67,3255.59 3456.19,3226.37 3475.04,3204.69 3499.55,3173.58 3520.29,3146.24 3546.68,3112.31 3568.36,3078.38 3587.22,3051.04 3604.18,3022.76 3629.16,2979.87 3641.42,2954.41 3659.8,2917.18 3672.55,2889.36 3683.38,2858.72 3694.22,2824.78 3704.12,2785.2 3706.48,2751.26 3710.25,2706.48 3710.25,2663.59 3708.36,2626.36 3705.23,2571.68 "/>
    <polygon class="fil1 str0" points="3130.53,2575.45 3108.84,2591 3083.87,2612.21 3055.58,2643.32 3036.73,2666.42 3050.87,2697.05 3078.68,2735.23 3110.73,2768.23 3143.72,2795.09 3166.81,2811.58 3166.81,2823.84 3161.16,2833.74 3150.79,2861.55 3138.06,2887.95 3123.45,2924.23 3114.03,2948.74 3095.64,2993.52 3085.75,3017.09 3061.21,3080.46 3037.2,3141.05 3054.17,3168.14 3068.55,3189.12 3088.11,3213.63 3106.02,3231.78 3125.11,3250.86 3145.62,3268.31 3162.82,3281.27 3183.56,3297.53 3196.99,3307.42 3214.43,3321.33 3226.92,3331.93 3250.25,3312.85 3266.04,3299.88 3283.95,3286.69 3301.63,3273.25 3327.07,3250.39 3371.85,3204.91 3383.17,3193.36 3401.08,3167.44 3416.16,3140.57 3403.44,3105.82 3312.95,2888.41 3297.39,2849.29 3288.44,2823.84 3286.08,2804.99 3307.29,2788.96 3326.61,2773.88 3353.95,2747.95 3366.68,2735.23 3383.65,2714.96 3408.15,2679.14 3414.75,2665 3386.94,2630.12 3365.26,2607.03 3345.46,2588.64 3325.2,2575.45 "/>
    <line class="fil0 str0" x1="4650.7" y1="3614.88" x2="1801.36" y2= "3614.88" />
    <polyline class="fil0 str0" points="3574.22,2339.31 3541.11,2368.52 3484.55,2405.29 3437.41,2430.74 3406.3,2444.88 3348.8,2463.74 3277.16,2474.1 3202.69,2475.04 3146.13,2470.33 3105.6,2463.74 3056.57,2448.65 3022.64,2436.4 2974.29,2412.37 "/>
    <polygon class="fil1 str1" points="1801.36,3179.23 1801.36,3614.88 4650.7,3614.88 4643.16,3166.03 4637.99,3134.93 4634.22,3121.73 4622.9,3079.31 4610.18,3048.2 4597.93,3021.8 4587.09,2997.3 4563.05,2952.52 4545.13,2927.07 4522.04,2898.32 4486.69,2868.15 4452.29,2844.11 4406.57,2813.95 4357.08,2788.97 4300.05,2762.1 4246.79,2740.42 4187.87,2718.74 4136.5,2702.71 4088.42,2686.69 4026.2,2666.9 3973.41,2650.87 3900.36,2630.13 3831.07,2609.86 3705.23,2571.68 3708.36,2626.36 3710.25,2663.59 3710.25,2706.48 3706.48,2751.26 3704.12,2785.2 3694.22,2824.78 3683.38,2858.72 3672.55,2889.36 3659.8,2917.18 3641.42,2954.41 3629.16,2979.87 3604.18,3022.76 3587.22,3051.04 3568.36,3078.38 3546.68,3112.31 3520.29,3146.24 3499.55,3173.58 3475.04,3204.69 3456.19,3226.37 3431.67,3255.59 3411.88,3278.22 3390.2,3298.96 3372.29,3314.98 3344.95,3338.55 3322.33,3358.34 3281.79,3388.5 3258.23,3405.47 3224.29,3429.99 3206.38,3413.96 3177.16,3391.34 3129.08,3355.52 3090.43,3320.64 3049.89,3283.87 3007.24,3240.04 2985.56,3212.71 2950.68,3171.23 2920.52,3132.58 2883.07,3080.46 2853.11,3028.43 2838.5,3001.56 2820.59,2969.51 2806.45,2943.58 2792.31,2911.53 2778.17,2878.54 2760.26,2827.63 2749.89,2788.04 2745.18,2742.8 2744.24,2697.54 2747.06,2640.98 2750.69,2570.27 2694.12,2588.18 2642.75,2603.73 2579.59,2622.58 2522.55,2639.55 2449.97,2659.34 2401.43,2675.37 2343.92,2691.87 2291.13,2708.37 2248.24,2721.56 2197.81,2740.89 2153.97,2758.8 2116.27,2779.54 2062.06,2807.35 2015.4,2835.15 1984.29,2856.36 1959.78,2873.8 1931.03,2899.26 1908.41,2922.82 1884.84,2968.07 1863.63,3003.89 1841.95,3048.2 1820.27,3113.24 1806.12,3156.6 "/>
    <polygon class="fil1 str1" points="3032.53,1110.09 3061.75,1135.54 3095.93,1160.05 3129.63,1182.67 3158.15,1200.35 3193.73,1219.2 3229.32,1236.17 3265.85,1252.2 3317.46,1272.47 3378.5,1289.67 3436,1306.17 3465.34,1313.01 3503.52,1320.07 3541.47,1327.03 3611.45,1336.34 3670.38,1341.05 3747.67,1342.94 3792.92,1344.35 3798.11,1343.41 3795.28,1406.1 3790.1,1440.03 3783.5,1484.34 3778.31,1528.17 3768.89,1577.19 3760.87,1612.54 3743.43,1685.13 3741.08,1696.91 3742.02,1711.53 3783.02,1606.88 3794.34,1581.9 3812.24,1555.98 3825.44,1539.96 3837.7,1528.65 3859.85,1515.45 3882.48,1504.13 3893.82,1499.24 3902.77,1418.78 3911.25,1345.25 3916.9,1259.47 3912.19,1144.47 3901.82,1077.54 3892.4,1021.92 3880.14,973.84 3867.89,942.74 3843.38,889.48 3826.41,864.03 3797.66,825.85 3769.86,795.21 3748.64,773.06 3722.72,748.55 3697.73,728.28 3656.73,699.53 3620.44,677.85 3590.27,662.77 3551.62,645.79 3514.86,630.25 3476.21,616.57 3443.22,605.73 3411.17,597.72 3375.35,591.12 3345.65,586.52 3250.94,582.79 3147.23,584.16 3126.02,586.52 3093.02,591.12 3056.26,597.25 3032.22,601.02 2992.63,611.86 2964.34,621.29 2941.72,628.83 2907.79,640.14 2873.38,655.22 2845.57,668.42 2812.57,685.86 2786.18,704.71 2762.14,722.63 2743.76,734.88 2727.26,748.08 2703.23,770.7 2682.02,790.73 2666.47,807.7 2648.55,829.38 2635.36,846.35 2622.63,865.21 2607.55,889.25 2583.79,940.39 2571.53,976.21 2559.28,1016.27 2550.79,1064.82 2544.19,1097.34 2538.54,1135.52 2536.66,1177.46 2535.95,1216.58 2535.47,1287.28 2537.36,1311.32 2540.19,1353.74 2544.43,1389.57 2550.08,1431.04 2559.99,1495.61 2561.4,1500.33 2612.1,1561.64 2638.49,1604.99 2659.24,1642.7 2686.57,1691.72 2694.11,1707.75 2684.69,1612.54 2679.03,1572 2673.37,1533.35 2666.77,1489.05 2660.17,1434.37 2652.65,1379.7 2650.76,1325.02 2652.65,1268.46 2677.15,1217.55 2695.06,1186.45 2717.68,1156.28 2745.96,1125.17 2774.24,1100.67 2802.53,1079.92 2829.86,1062.02 2860.02,1045.99 2890.19,1035.62 2929.79,1025.25 2941.09,1025.25 2956.17,1040.34 2974.09,1057.31 2986.34,1069.55 3000.49,1083.7 3015.57,1095.95 "/>
    <polygon class="fil1 str1" points="3325.2,2575.45 3130.53,2575.45 3108.84,2591 3083.87,2612.21 3055.58,2643.32 3036.73,2666.42 3050.87,2697.05 3078.68,2735.23 3110.73,2768.23 3143.72,2795.09 3166.81,2811.58 3166.81,2823.84 3161.16,2833.74 3150.79,2861.55 3138.06,2887.95 3123.45,2924.23 3114.03,2948.74 3095.64,2993.52 3085.75,3017.09 3061.21,3080.46 3037.2,3141.05 3054.17,3168.14 3068.55,3189.12 3088.11,3213.63 3106.02,3231.78 3125.11,3250.86 3145.62,3268.31 3162.82,3281.27 3183.56,3297.53 3196.99,3307.42 3214.43,3321.33 3226.92,3331.93 3250.25,3312.85 3266.04,3299.88 3283.95,3286.69 3301.63,3273.25 3327.07,3250.39 3371.85,3204.91 3383.17,3193.36 3401.08,3167.44 3416.16,3140.57 3403.44,3105.82 3312.95,2888.41 3297.39,2849.29 3288.44,2823.84 3286.08,2804.99 3307.29,2788.96 3326.61,2773.88 3353.95,2747.95 3366.68,2735.23 3383.65,2714.96 3408.15,2679.14 3414.75,2665 3386.94,2630.12 3365.26,2607.03 3345.46,2588.64 "/>
   </g>
   <path class="fil2 str2" d="M4377.9 2721.76c102.03,-105.83 170.94,-93.88 206.69,35.91 0.33,1.22 0.67,2.47 1,3.73l0.45 1.64 -0.29 8.57 -2.78 9.93c-189.01,899.11 -914.98,1561.22 -1763.9,1606.99 -8.8,0.47 -17.61,0.89 -26.44,1.22l-8.72 -5.4c-53.41,-48.43 -52.31,-105.17 3.45,-170.25l10.55 -4.66 29.24 -3.67c738.32,-48.65 1370.73,-644.41 1541.9,-1451.67l3.34 -16.03 5.48 -16.32zm-1516.14 -2707.65c1089.28,92.81 1889.28,1146.64 1789.23,2355.27 -61.22,92.89 -186.83,95.32 -227.72,-14.18 91.09,-1098.03 -609.84,-2053.28 -1567.59,-2134.85 -959.26,-81.73 -1812.86,743.89 -1906.62,1844.1 -93.4,1096.54 603.21,2051.91 1557.51,2139.23 58.32,76.24 49.05,141.44 -27.85,195.55 -429.58,-38.84 -813.74,-227.22 -1114.88,-515.5l-857.74 1112.49c-86.38,78.52 -126.37,96.74 -166.87,103.88 -46.75,8.23 -88.53,12.43 -125.33,12.28 -137.79,-0.13 -205.94,-61.09 -205.68,-198.48 -0.05,-33.17 3.87,-70.77 11.78,-113.05 4.63,-24.78 11.12,-34.98 18.43,-62.33 3.06,-11.47 11.05,-38.12 21.89,-54.57 4.95,-7.55 13.26,-18.75 18.67,-28.53 4.95,-8.99 12.8,-20.15 19.54,-30.33 8,-12.1 17.3,-24.54 25.21,-34.75 8.09,-10.4 14.74,-18.47 17.19,-21.42l925.51 -1003.67c0.69,0.24 1.37,0.45 2.05,0.69l14.11 -15.3c-282.87,-415.67 -431.36,-947.02 -383.23,-1511.88 103.19,-1211.16 1071.3,-2117.61 2162.39,-2024.64zm1722.83 2743.56l1 3.73 -1 -3.73zm-2198.41 -2311.91c139.3,0.84 170.42,60.99 93.37,180.44l-14.32 8.81c-744.95,341.63 -1164.37,1062.7 -1020.81,1752.9l3.96 27.53 -1.75 10.63c-48.54,66.14 -103.06,80.46 -163.59,42.89l-7.49 -6.72c-188.82,-793.24 265.11,-1623.42 1093.57,-2009.4l8.88 -4.87 8.18 -2.22z"/>
  </g>
 </g>
</svg>
